<svg xmlns="http://www.w3.org/2000/svg" width="28" height="28" viewBox="0 0 28 28" fill="none">
  <path fill-rule="evenodd" clip-rule="evenodd" d="M15.741 6.83082C14.768 5.98068 13.2318 5.98068 12.2588 6.83082L7.08789 11.3487C6.96119 11.4594 6.87597 11.6035 6.84431 11.7608C6.22496 14.8361 6.17925 17.9844 6.70908 21.0736L6.83484 21.8068H10.1616V15.4856C10.1616 15.0641 10.5369 14.7224 10.9998 14.7224H17C17.4629 14.7224 17.8382 15.0641 17.8382 15.4856V21.8068H21.165L21.2907 21.0736C21.8205 17.9844 21.7748 14.8361 21.1555 11.7608C21.1238 11.6035 21.0386 11.4594 20.9119 11.3487L15.741 6.83082ZM11.098 5.72935C12.7197 4.31246 15.2801 4.31246 16.9018 5.72935L22.0727 10.2472C22.4533 10.5798 22.7094 11.013 22.8045 11.4855C23.4578 14.7295 23.5061 18.0505 22.9472 21.3091L22.7451 22.4871C22.6616 22.9742 22.2008 23.3334 21.6593 23.3334H17C16.537 23.3334 16.1617 22.9916 16.1617 22.5701V16.2489H11.8381V22.5701C11.8381 22.9916 11.4628 23.3334 10.9998 23.3334H6.34052C5.79903 23.3334 5.33822 22.9742 5.25467 22.4871L5.05264 21.3091C4.49374 18.0505 4.54197 14.7295 5.19528 11.4855C5.29044 11.013 5.54648 10.5798 5.92712 10.2472L11.098 5.72935Z" fill="white" fill-opacity="0.3"/>
</svg>