<svg xmlns="http://www.w3.org/2000/svg" width="71" height="71" viewBox="0 0 71 71" fill="none">
  <g clip-path="url(#clip0_1_210)">
    <path d="M58.9756 22.7806C56.4016 21.0486 52.2951 21.4658 48.7231 23.8202C47.822 24.416 47.2002 24.934 46.4069 25.7413C45.1588 27.0183 44.2671 28.4273 43.7614 29.9422C43.4664 30.8259 43.347 31.6001 43.3803 32.4565C43.4242 33.5892 43.7188 34.4793 44.3305 35.3425C44.6173 35.7458 45.3056 36.3707 45.7473 36.6293C46.6248 37.1413 47.5569 37.4158 48.6862 37.4996C50.9364 37.6593 53.4501 36.9116 55.7624 35.3919C56.7931 34.7133 57.58 34.028 58.4468 33.0489C59.6396 31.6995 60.3602 30.447 60.7817 28.9714C61.0231 28.1342 61.0928 27.5751 61.0608 26.7518C61.0209 25.6494 60.7377 24.77 60.1549 23.9388C59.9614 23.6589 59.2624 22.9709 58.9756 22.7806Z" fill="black" fill-opacity="0.15"/>
    <path d="M46.0796 12.2318C45.5192 11.8369 45.1016 11.6271 44.595 11.479C42.8518 10.9776 40.7742 11.4141 38.793 12.6961C37.8752 13.2871 37.2029 13.8598 36.3959 14.7395C34.9991 16.2522 34.0239 17.9303 33.4516 19.7994C33.1055 20.9343 32.9573 21.9642 32.9938 22.9782C33.0502 24.4314 33.4589 25.6239 34.2312 26.5608C35.1781 27.7174 36.7499 28.295 38.4473 28.1149C40.0592 27.9409 41.712 27.1815 43.3377 25.8642C43.8768 25.4243 45.2445 23.9488 45.6346 23.3766C47.2137 21.0733 48.0033 18.7443 47.9523 16.5714C47.9075 14.8466 47.4262 13.5657 46.4526 12.5762C46.3001 12.4247 46.1337 12.2711 46.0796 12.2318Z" fill="black" fill-opacity="0.15"/>
    <path d="M28.678 12.9996C27.9842 12.5188 27.4141 12.3014 26.6642 12.227C25.2226 12.084 23.5998 12.69 22.0469 13.9573C21.5855 14.3304 20.5439 15.4411 20.1738 15.9571C19.6013 16.7498 19.0665 17.6572 18.6841 18.4975C17.2283 21.6978 17.0917 25.1678 18.3283 27.3751C18.6079 27.8784 18.7968 28.1114 19.253 28.5327C19.5943 28.8425 19.7312 28.9475 19.9911 29.0863C20.3416 29.2767 20.9416 29.4791 21.2893 29.5285C22.5554 29.7119 23.8888 29.3501 25.2817 28.4519C26.016 27.9791 26.2941 27.7297 27.181 26.7692C27.9322 25.9498 28.0141 25.8496 28.3513 25.3405C28.9785 24.3906 29.4291 23.5226 29.819 22.5188C31.0842 19.2544 30.9791 15.9022 29.5489 13.9103C29.3673 13.6521 28.8599 13.1249 28.678 12.9996Z" fill="black" fill-opacity="0.15"/>
    <path d="M56.1279 41.7497C53.7364 40.2288 49.6896 40.685 46.2793 42.8585C44.6294 43.9084 43.2485 45.3291 42.4529 46.7895C41.4843 48.5697 41.3736 50.3535 42.1399 51.7057C42.3509 52.0817 42.5312 52.3067 42.867 52.6167C43.2429 52.9638 43.5553 53.1724 44.0317 53.3992C44.9759 53.8448 46.0873 54.0345 47.366 53.9738C48.1311 53.9397 48.618 53.8672 49.3855 53.6808C51.2797 53.2242 53.0896 52.3061 54.685 50.9928C55.1624 50.6025 56.2438 49.4486 56.5477 49.01C57.3049 47.9137 57.7248 46.9695 57.8933 45.9637C58.1023 44.7182 57.8322 43.5311 57.1398 42.6574C56.9218 42.3868 56.4258 41.9395 56.1279 41.7497Z" fill="black" fill-opacity="0.15"/>
    <path d="M33.9472 35.7925C32.559 34.6705 30.5863 33.531 29.4924 33.2188C28.7397 33.0034 28.1769 32.9738 26.3733 33.056C25.6413 33.0887 24.823 33.1056 24.5569 33.0944C23.7974 33.059 22.4663 32.8368 20.1705 32.358C16.4662 31.5855 15.1906 31.4412 14.39 31.7037C13.4474 32.0107 12.5122 32.6549 11.6413 33.5982C10.9427 34.349 10.5083 34.9922 10.1338 35.8238C9.76933 36.6274 9.62736 37.2475 9.58973 38.2037C9.46631 41.3716 10.9358 44.7316 14.1407 48.6072C15.2729 49.9776 16.4477 51.2328 19.5443 54.3851C20.7454 55.606 23.2943 57.9755 24.0937 58.6124C27.306 61.1788 29.8551 62.4137 32.5049 62.6761C33.1632 62.7404 34.244 62.7155 34.7604 62.6169C35.6313 62.4567 36.3127 62.047 37.0615 61.236C37.5102 60.75 37.8303 60.2997 38.1559 59.7052C38.9617 58.2223 39.2205 57.1187 39.1391 55.5198C39.1014 54.7604 39.0295 54.2625 38.7213 52.5927C38.4021 50.8542 38.316 50.2047 38.2961 49.3338C38.2778 48.5764 38.3276 48.0043 38.5484 46.3489C38.7399 44.9381 38.7932 44.1722 38.7568 43.4459C38.7164 42.6894 38.6107 42.1763 38.3648 41.5443C37.5782 39.5233 35.958 37.4147 33.9472 35.7925Z" fill="black" fill-opacity="0.15"/>
  </g>
  <defs>
    <clipPath id="clip0_1_210">
      <rect width="49.2913" height="50.1027" fill="white" transform="translate(34.6044 0.219055) rotate(42.7176)"/>
    </clipPath>
  </defs>
</svg>