<svg xmlns="http://www.w3.org/2000/svg" width="28" height="28" viewBox="0 0 28 28" fill="none">
  <path d="M12.8332 4.375C10.4169 4.375 8.45817 6.33375 8.45817 8.75C8.45817 11.1662 10.4169 13.125 12.8332 13.125C15.2494 13.125 17.2082 11.1662 17.2082 8.75C17.2082 6.33375 15.2494 4.375 12.8332 4.375Z" fill="white" fill-opacity="0.3"/>
  <path d="M8.1665 15.4583C5.75026 15.4583 3.7915 17.4171 3.7915 19.8333V21.2197C3.7915 22.0984 4.42837 22.8477 5.29565 22.9893C10.2876 23.8043 15.3787 23.8043 20.3707 22.9893C21.238 22.8477 21.8748 22.0984 21.8748 21.2197V19.8333C21.8748 17.4171 19.9161 15.4583 17.4998 15.4583H17.1022C16.8869 15.4583 16.673 15.4924 16.4684 15.5592L15.4587 15.8889C13.7527 16.446 11.9137 16.446 10.2077 15.8889L9.19792 15.5592C8.99331 15.4924 8.77943 15.4583 8.56418 15.4583H8.1665Z" fill="white" fill-opacity="0.3"/>
  <path d="M22.7498 7.29167C23.2331 7.29167 23.6248 7.68342 23.6248 8.16667V10.2083H25.6665C26.1498 10.2083 26.5415 10.6001 26.5415 11.0833C26.5415 11.5666 26.1498 11.9583 25.6665 11.9583H23.6248V14C23.6248 14.4832 23.2331 14.875 22.7498 14.875C22.2666 14.875 21.8748 14.4832 21.8748 14V11.9583H19.8332C19.3499 11.9583 18.9582 11.5666 18.9582 11.0833C18.9582 10.6001 19.3499 10.2083 19.8332 10.2083H21.8748V8.16667C21.8748 7.68342 22.2666 7.29167 22.7498 7.29167Z" fill="white" fill-opacity="0.3"/>
</svg>