<svg xmlns="http://www.w3.org/2000/svg" width="35" height="35" viewBox="0 0 35 35" fill="none">
  <path d="M12.1 5.83333C7.92871 5.83333 4.375 9.17933 4.375 13.525C4.375 16.5228 5.68352 19.0467 7.41774 21.1375C9.14599 23.221 11.3757 24.9699 13.3915 26.4337L16.8694 28.9592C17.2503 29.2358 17.7497 29.2358 18.1306 28.9592L21.6085 26.4337C23.6243 24.9699 25.854 23.221 27.5823 21.1375C29.3165 19.0467 30.625 16.5228 30.625 13.525C30.625 9.17933 27.0713 5.83333 22.9 5.83333C20.7498 5.83333 18.8577 6.91493 17.5 8.31444C16.1423 6.91493 14.2502 5.83333 12.1 5.83333Z" fill="#F39932"/>
</svg>