<svg xmlns="http://www.w3.org/2000/svg" width="36" height="36" viewBox="0 0 36 36" fill="none">
  <path fill-rule="evenodd" clip-rule="evenodd" d="M4 13.9114C4 9.4416 7.79063 6 12.24 6C14.5336 6 16.5517 7.11251 18 8.552C19.4483 7.11251 21.4664 6 23.76 6C28.2094 6 32 9.4416 32 13.9114C32 16.9732 30.7378 19.6658 28.9891 21.9419C27.2434 24.2139 24.9599 26.1423 22.7736 27.7092C21.9385 28.3077 21.0936 28.8598 20.3204 29.2671C19.5944 29.6496 18.7596 30 18 30C17.2404 30 16.4056 29.6496 15.6796 29.2671C14.9064 28.8598 14.0615 28.3077 13.2265 27.7092C11.0401 26.1423 8.7566 24.2139 7.01091 21.9419C5.26221 19.6658 4 16.9732 4 13.9114ZM12.24 8.48276C8.9132 8.48276 6.4 11.0137 6.4 13.9114C6.4 16.2344 7.35326 18.3972 8.88975 20.397C10.4293 22.4008 12.5007 24.1687 14.5932 25.6683C15.385 26.2358 16.1308 26.7186 16.7687 27.0547C17.4538 27.4157 17.8507 27.5172 18 27.5172C18.1493 27.5172 18.5462 27.4157 19.2313 27.0547C19.8692 26.7186 20.615 26.2358 21.4068 25.6683C23.4993 24.1687 25.5708 22.4008 27.1103 20.397C28.6467 18.3972 29.6 16.2344 29.6 13.9114C29.6 11.0137 27.0868 8.48276 23.76 8.48276C21.8494 8.48276 20.0653 9.6636 18.9513 11.1624C18.7242 11.468 18.3727 11.6471 18 11.6471C17.6273 11.6471 17.2758 11.468 17.0487 11.1624C15.9347 9.6636 14.1506 8.48276 12.24 8.48276Z" fill="#F39932"/>
</svg>