<svg xmlns="http://www.w3.org/2000/svg" width="28" height="28" viewBox="0 0 28 28" fill="none">
  <path fill-rule="evenodd" clip-rule="evenodd" d="M13.9998 7.29167C11.9058 7.29167 10.2082 8.98925 10.2082 11.0833C10.2082 13.1774 11.9058 14.875 13.9998 14.875C16.0939 14.875 17.7915 13.1774 17.7915 11.0833C17.7915 8.98925 16.0939 7.29167 13.9998 7.29167ZM11.9582 11.0833C11.9582 9.95575 12.8723 9.04167 13.9998 9.04167C15.1274 9.04167 16.0415 9.95575 16.0415 11.0833C16.0415 12.2109 15.1274 13.125 13.9998 13.125C12.8723 13.125 11.9582 12.2109 11.9582 11.0833Z" fill="white"/>
  <path fill-rule="evenodd" clip-rule="evenodd" d="M13.9998 2.625C9.32843 2.625 5.54151 6.41192 5.54151 11.0833C5.54151 12.7962 6.05062 14.3901 6.92577 15.722L3.90873 20.9477C3.73716 21.2448 3.75513 21.6149 3.95469 21.894C4.15426 22.1732 4.49858 22.3099 4.83529 22.2437L7.8848 21.6442L8.89039 24.5849C9.00142 24.9096 9.29199 25.1394 9.63353 25.1727C9.97507 25.2059 10.3045 25.0365 10.4761 24.7393L13.4858 19.5263C13.6559 19.5365 13.8272 19.5417 13.9998 19.5417C14.1724 19.5417 14.3438 19.5365 14.5139 19.5263L17.5236 24.7393C17.6953 25.0368 18.0253 25.2063 18.3671 25.1726C18.7089 25.139 18.9995 24.9084 19.1099 24.5831L20.1104 21.6365L23.1625 22.2434C23.4994 22.3103 23.8444 22.174 24.0444 21.8948C24.2445 21.6156 24.2627 21.2451 24.091 20.9477L21.0739 15.722C21.9491 14.3901 22.4582 12.7961 22.4582 11.0833C22.4582 6.41192 18.6713 2.625 13.9998 2.625ZM7.29151 11.0833C7.29151 7.37842 10.2949 4.375 13.9998 4.375C17.7048 4.375 20.7082 7.37842 20.7082 11.0833C20.7082 14.7882 17.7048 17.7917 13.9998 17.7917C10.2949 17.7917 7.29151 14.7882 7.29151 11.0833ZM11.6476 19.2103C10.3024 18.8216 9.09513 18.108 8.11623 17.1601L6.38699 20.1552L8.29678 19.7798C8.72618 19.6953 9.1519 19.9411 9.29349 20.3552L9.92326 22.1969L11.6476 19.2103ZM18.0736 22.192L16.3521 19.2103C17.6973 18.8216 18.9046 18.108 19.8835 17.1601L21.6099 20.1504L19.6992 19.7704C19.2686 19.6848 18.8411 19.9316 18.7 20.3473L18.0736 22.192Z" fill="white"/>
</svg>