<svg xmlns="http://www.w3.org/2000/svg" width="28" height="28" viewBox="0 0 28 28" fill="none">
<path d="M8.53607 4.39685C12.1382 3.99426 15.8615 3.99426 19.4637 4.39685C20.8161 4.54801 22.0033 5.27936 22.7543 6.34149L13.4165 15.6792L10.5353 12.7979C10.1936 12.4562 9.63953 12.4562 9.29783 12.7979C8.95612 13.1396 8.95612 13.6937 9.29783 14.0354L12.7978 17.5354C13.1395 17.8771 13.6936 17.8771 14.0353 17.5354L23.5033 8.06736C23.5295 8.19518 23.5504 8.32499 23.5658 8.45654C23.9966 12.1396 23.9966 15.8603 23.5658 19.5434C23.3151 21.6865 21.5944 23.365 19.4637 23.6031C15.8615 24.0057 12.1382 24.0057 8.53607 23.6031C6.40529 23.365 4.68457 21.6865 4.43392 19.5434C4.00315 15.8603 4.00315 12.1396 4.43392 8.45654C4.68457 6.31342 6.40529 4.635 8.53607 4.39685Z" fill="white"/>
</svg>