<svg xmlns="http://www.w3.org/2000/svg" width="28" height="28" viewBox="0 0 28 28" fill="none">
  <path d="M8.73069 6.13603C7.39552 6.28525 6.32679 7.33904 6.17231 8.65983C5.75734 12.2078 5.75734 15.7921 6.17231 19.3401C6.32679 20.6609 7.39552 21.7147 8.73069 21.8639C12.2037 22.2521 15.7966 22.2521 19.2695 21.8639C20.6047 21.7147 21.6734 20.6609 21.8279 19.3401C22.1261 16.7908 22.21 14.2227 22.0797 11.6628C22.0763 11.5967 22.101 11.5322 22.1478 11.4854L23.3597 10.2735C23.5 10.1333 23.7397 10.221 23.7546 10.4188C23.9833 13.4579 23.9204 16.5134 23.566 19.5434C23.3154 21.6865 21.5947 23.365 19.4639 23.6031C15.8617 24.0057 12.1385 24.0057 8.53631 23.6031C6.40553 23.365 4.68482 21.6865 4.43416 19.5434C4.00339 15.8603 4.00339 12.1396 4.43416 8.45654C4.68482 6.31342 6.40553 4.635 8.53631 4.39685C12.1385 3.99426 15.8617 3.99426 19.4639 4.39685C20.2144 4.48073 20.914 4.74326 21.5164 5.14184C21.6349 5.22027 21.6467 5.38691 21.5462 5.48742L20.6095 6.42411C20.5328 6.50074 20.414 6.51362 20.3185 6.46245C19.9995 6.29153 19.6451 6.178 19.2695 6.13603C15.7966 5.74787 12.2037 5.74787 8.73069 6.13603Z" fill="white" fill-opacity="0.3"/>
  <path d="M24.5355 7.03536C24.8772 6.69365 24.8772 6.13964 24.5355 5.79793C24.1938 5.45622 23.6397 5.45622 23.298 5.79793L13.4168 15.6792L10.5355 12.7979C10.1938 12.4562 9.63974 12.4562 9.29803 12.7979C8.95633 13.1396 8.95633 13.6937 9.29803 14.0354L12.798 17.5354C13.1397 17.8771 13.6938 17.8771 14.0355 17.5354L24.5355 7.03536Z" fill="white" fill-opacity="0.3"/>
</svg>