<svg xmlns="http://www.w3.org/2000/svg" width="28" height="28" viewBox="0 0 28 28" fill="none">
  <path d="M11.6665 15.4582C12.1498 15.4582 12.5415 15.85 12.5415 16.3332V18.6666C12.5415 19.1498 12.1498 19.5416 11.6665 19.5416C11.1833 19.5416 10.7915 19.1498 10.7915 18.6666V16.3332C10.7915 15.85 11.1833 15.4582 11.6665 15.4582Z" fill="white" fill-opacity="0.3"/>
  <path d="M17.2082 16.3332C17.2082 15.85 16.8164 15.4582 16.3332 15.4582C15.8499 15.4582 15.4582 15.85 15.4582 16.3332V18.6666C15.4582 19.1498 15.8499 19.5416 16.3332 19.5416C16.8164 19.5416 17.2082 19.1498 17.2082 18.6666V16.3332Z" fill="white" fill-opacity="0.3"/>
  <path fill-rule="evenodd" clip-rule="evenodd" d="M11.2576 3.9374C11.4992 3.5189 11.3558 2.98375 10.9373 2.74213C10.5188 2.50051 9.98369 2.6439 9.74206 3.0624L7.40873 7.10385C7.37377 7.1644 7.34688 7.22739 7.3277 7.29157H6.99984C5.22792 7.29157 3.7915 8.72799 3.7915 10.4999C3.7915 11.5022 4.25113 12.3972 4.97111 12.9855L5.74921 18.3343L6.27041 20.7763C6.58269 22.2395 7.77711 23.3508 9.25893 23.557C12.4044 23.9947 15.5953 23.9947 18.7408 23.557C20.2226 23.3508 21.417 22.2395 21.7293 20.7763L22.2505 18.3343L23.0286 12.9855C23.7485 12.3972 24.2082 11.5022 24.2082 10.4999C24.2082 8.72799 22.7718 7.29157 20.9998 7.29157H20.672C20.6528 7.22739 20.6259 7.1644 20.5909 7.10385L18.2576 3.0624C18.016 2.6439 17.4808 2.50051 17.0623 2.74213C16.6438 2.98375 16.5004 3.5189 16.7421 3.9374L18.6786 7.29157H9.32108L11.2576 3.9374ZM21.1556 13.7045C21.104 13.707 21.052 13.7082 20.9998 13.7082H6.99984C6.94763 13.7082 6.89572 13.707 6.84413 13.7045L7.47269 18.0254L7.98186 20.4111C8.14051 21.1544 8.7473 21.719 9.5001 21.8237C12.4855 22.2391 15.5141 22.2391 18.4996 21.8237C19.2524 21.719 19.8592 21.1544 20.0178 20.4111L20.527 18.0254L21.1556 13.7045ZM5.5415 10.4999C5.5415 9.69449 6.19442 9.04157 6.99984 9.04157H20.9998C21.8053 9.04157 22.4582 9.69449 22.4582 10.4999C22.4582 11.3053 21.8053 11.9582 20.9998 11.9582H6.99984C6.19442 11.9582 5.5415 11.3053 5.5415 10.4999Z" fill="white" fill-opacity="0.3"/>
</svg>