<svg width="58" height="49" viewBox="0 0 58 49" fill="none" xmlns="http://www.w3.org/2000/svg">
<path id="Vector" d="M43.345 45.281C43.4093 42.0845 43.4001 41.0085 43.2768 37.3721L43.2066 35.4441L43.7452 35.944L44.2873 36.457L44.3185 37.6672C44.3423 38.6412 44.4338 39.1909 44.7775 40.3173C45.0171 41.1075 45.4818 42.7897 45.8215 44.0572C46.1646 45.3378 46.4412 46.3702 46.4603 46.3371C46.4698 46.3205 46.4269 45.3796 46.3706 44.2322C46.2545 41.9244 45.819 39.6741 45.165 38.0146C44.9494 37.4701 44.7878 37.0232 44.8138 37.0162C44.8268 37.0127 44.9825 37.1251 45.1487 37.2766C45.388 37.4927 45.6131 38.0206 46.0669 39.4536C46.7312 41.5165 46.7077 41.4808 48.4875 43.3849C48.954 43.8761 49.2068 44.2986 49.4504 44.9476C49.8792 46.0792 49.9199 45.6061 49.5267 44.0868C49.1791 42.7374 48.6957 41.6624 47.8559 40.4028C47.4961 39.841 47.2033 39.3732 47.2129 39.3566C47.2224 39.3401 47.7995 39.6196 48.5089 39.9758C49.6963 40.554 55.0061 42.5626 55.0762 42.4598C55.1368 42.3735 51.5578 39.691 50.5031 39.0352C49.4945 38.3951 47.9842 37.8614 46.5214 37.6091C45.7474 37.4804 44.8599 37.0319 44.7793 36.7313C44.7583 36.6529 45.0372 36.7043 45.4091 36.8427C46.6266 37.2728 47.8331 37.4537 49.304 37.4238C50.7879 37.3903 52.9983 37.2042 53.4539 37.0821C53.7498 36.9888 48.8186 36.2373 47.3423 36.1427C46.7891 36.1088 45.8764 36.0873 45.2982 36.1161L44.2458 36.146L43.5216 35.3177C43.1177 34.8516 42.8199 34.4693 42.8589 34.4588C42.898 34.4483 43.9683 34.6938 45.2393 35.0114C46.5104 35.3291 47.9742 35.6372 48.4918 35.6946C49.4516 35.7876 55.5263 35.7565 55.5799 35.6441C55.6085 35.5944 51.8759 34.9419 48.5577 34.4304C47.8298 34.3173 46.1327 34.1278 44.764 34.0184C42.3079 33.8081 41.9004 33.6932 41.7238 33.1383C41.6993 33.0468 42.4853 33.1163 43.4625 33.2747C46.0136 33.6835 46.671 33.6895 49.2423 33.3926C51.7877 33.1028 53.0017 33.1556 55.9509 33.6959C56.876 33.8682 57.663 33.9935 57.702 33.983C57.7411 33.9726 57.283 33.7732 56.6903 33.5398C55.2912 33.0043 53.7222 32.6684 51.9445 32.5425C51.175 32.4826 49.8669 32.2869 49.0529 32.1128C46.9618 31.6507 44.2178 31.6157 41.7821 32.0022L40.9115 32.1374L40.4665 31.5704C40.2123 31.2463 40.0371 30.9571 40.0527 30.911C40.0847 30.8744 41.5341 30.9202 43.2823 31.04C46.8733 31.2683 48.4058 31.2078 50.9872 30.7402C51.9715 30.5605 53.6798 30.2708 54.7752 30.0893C56.9496 29.7168 57.0572 29.702 56.9581 29.6445C56.9251 29.6253 55.5123 29.6117 53.8286 29.6287C52.1449 29.6457 50.1113 29.6583 49.3003 29.6516C47.0114 29.6486 44.3129 29.7834 41.8682 30.0323C40.6311 30.1537 39.5432 30.2071 39.4406 30.1366C39.2258 30.0121 37.8124 28.1218 37.86 28.0391C37.8791 28.006 39.4035 28.2278 41.2563 28.5296C43.096 28.835 45.2788 29.1185 46.1003 29.1645C47.3899 29.2391 56.6905 28.7498 56.7631 28.6043C56.8107 28.5215 49.0914 27.8308 45.3267 27.579C43.4508 27.4514 40.869 27.3448 39.5874 27.3521C37.4817 27.3561 37.2229 27.3274 37.0382 27.0548C36.9241 26.8893 36.5723 26.4093 36.2605 25.9746L35.7004 25.1863L36.5335 25.3273C36.9895 25.4152 38.4889 25.6997 39.8475 25.9799C44.0512 26.8283 44.9484 26.8961 49.346 26.6981C51.0547 26.6184 53.1524 26.5325 54.0216 26.4957C54.8777 26.4624 55.6061 26.4213 55.6251 26.3882C55.6442 26.3551 55.0309 26.2533 54.2544 26.1672C53.491 26.0777 51.3543 25.8098 49.532 25.5698C44.3275 24.8915 42.297 24.7073 38.5863 24.5531L35.1274 24.4015L34.3626 23.3179C33.9498 22.7142 33.6135 22.1881 33.6455 22.1515C33.661 22.1053 35.8663 22.3687 38.5311 22.7332C43.205 23.3576 43.4307 23.3671 45.3407 23.2055C47.4234 23.0115 48.3206 23.0793 52.8262 23.8048C55.7413 24.2702 56.1052 24.3268 56.0912 24.2745C56.0842 24.2483 55.5811 24.089 54.9799 23.928C54.3882 23.7504 53.402 23.4544 52.8163 23.2472C51.3555 22.7423 49.7926 22.3767 47.9859 22.0905C47.1433 21.9661 46.2537 21.7703 45.9869 21.6598C45.0153 21.2618 43.4123 20.851 42.1042 20.6553C40.5242 20.4344 38.8961 20.4505 35.5433 20.7466C34.1915 20.8567 32.9995 20.938 32.8813 20.9136C32.7762 20.8858 32.3958 20.4555 32.037 19.9494C31.3994 19.0278 31.3994 19.0278 31.7102 19.0425C31.877 19.0399 34.2384 19.2615 36.9569 19.5135C41.9351 19.9723 42.4978 19.9896 46.1962 19.6289C46.9046 19.5651 48.8085 19.4331 50.4321 19.3482C52.0522 19.2502 53.3945 19.1567 53.41 19.1105C53.429 19.0774 53.1737 19.0618 52.8238 19.0575C51.7123 19.0752 47.7548 18.8331 46.3426 18.6653C45.5791 18.5757 44.243 18.2755 43.3714 17.9908C40.1841 16.926 38.4664 16.8681 30.8961 17.566C30.501 17.6018 30.428 17.5374 29.8669 16.6933C29.5376 16.1933 29.2684 15.7612 29.2909 15.7412C29.31 15.7081 29.9117 15.7149 30.6447 15.7426C32.7914 15.8397 35.3842 15.8312 36.6413 15.7324C37.2812 15.673 39.2628 15.3101 41.0412 14.9177C43.6857 14.3211 44.4617 14.1972 45.2502 14.224C46.631 14.2742 48.656 14.698 50.334 15.2848C51.1369 15.5739 51.8173 15.7697 51.8328 15.7236C51.985 15.4587 48.6161 13.9244 46.9541 13.5014C45.3085 13.0879 44.2492 13.0917 41.8986 13.4834C39.2546 13.9258 38.1136 13.9374 36.5367 13.5196C35.4394 13.2254 34.3264 13.3415 31.3635 14.0514L28.5828 14.7124L27.7019 13.3518C27.221 12.5983 26.8332 11.9319 26.8417 11.8596C26.8562 11.7577 27.8255 11.8341 34.4678 12.4633C38.1164 12.8022 39.6184 12.6798 45.2984 11.5921C47.6705 11.1245 49.6286 10.7259 49.6512 10.7058C49.7022 10.6361 49.6727 10.63 47.192 10.6925C44.6427 10.7593 42.1946 10.631 38.7318 10.2563C33.6699 9.69384 33.1698 9.7018 28.6759 10.3737C27.2966 10.5892 26.1185 10.7228 26.069 10.6941C25.9298 10.5913 24.8344 8.74197 24.8689 8.66268C24.8879 8.62957 27.3901 8.85548 30.4134 9.15184C36.5816 9.782 36.5521 9.77591 39.8529 9.49371C41.1621 9.38101 43.8205 9.2009 45.735 9.10809C47.6625 9.01179 49.3121 8.91992 49.3772 8.90248C49.4518 8.86848 48.6859 8.82162 47.6846 8.78178C43.0517 8.62259 40.096 8.2661 38.2538 7.63926C34.6284 6.39776 32.8342 6.26229 26.565 6.76562L23.7799 6.99368L23.1063 5.88564C22.7325 5.27152 22.4587 4.77063 22.4848 4.76365C22.5108 4.75668 23.4289 4.90282 24.5338 5.06896C27.5671 5.55873 28.5163 5.61252 31.1097 5.44985C35.5584 5.18218 35.7572 5.14293 41.564 3.64303C44.946 2.77884 46.7354 2.27135 46.428 2.26969C46.1632 2.27062 45.2535 2.41633 44.4229 2.59688C41.6637 3.18213 39.2471 3.17139 35.4008 2.56332C32.1643 2.04398 29.3121 2.17796 22.9588 3.09602C21.4388 3.30722 21.4553 3.3168 20.9799 2.32372L20.7662 1.89077L21.9913 1.82862C22.6547 1.80494 24.3313 1.76184 25.7041 1.73015C29.4369 1.65433 30.3145 1.54521 34.0075 0.695754C35.8474 0.272768 38.3532 -0.21659 39.5799 -0.37719C41.7457 -0.677412 45.6228 -1.10002 46.3452 -1.11152C46.5379 -1.12114 46.6681 -1.15602 46.6186 -1.18476C46.4699 -1.27098 41.5757 -1.41617 40.6414 -1.36193C39.531 -1.28848 37.3297 -1.3289 35.3652 -1.47479C30.857 -1.79345 28.7127 -1.56903 22.8259 -0.159715C21.2367 0.210064 19.921 0.506596 19.8879 0.487437C19.8419 0.471767 18.5983 -1.618 18.5738 -1.70947C18.5703 -1.72254 19.0289 -1.67735 19.5926 -1.6043C20.1598 -1.51819 21.2141 -1.43654 21.9505 -1.39577L23.2792 -1.33162L27.0282 -2.33617C30.9856 -3.39653 33.3127 -4.18816 37.6662 -5.95692C41.2762 -7.42841 41.4079 -7.56174 38.5796 -6.81791C36.3371 -6.23104 35.3883 -6.07486 32.2092 -5.75523C30.9035 -5.62946 23.2258 -3.97839 20.414 -3.22497C18.0058 -2.57969 18.0188 -2.58318 17.5228 -3.4447C17.2056 -4.00395 17.147 -4.17034 17.2772 -4.20522C17.3683 -4.22964 18.4597 -4.26997 19.7118 -4.28334C21.9477 -4.32221 22.0163 -4.32659 23.8638 -4.87764C26.0072 -5.52199 26.3567 -5.72769 27.859 -7.30671C28.7418 -8.22954 30.8982 -10.9082 31.5448 -11.8798L31.8407 -12.3372L31.4552 -11.9538C31.2463 -11.7438 30.3019 -10.7904 29.3705 -9.84059C27.0485 -7.46769 26.719 -7.23935 25.0267 -6.7859C23.9853 -6.50686 23.3655 -6.42482 22.4008 -6.43243C21.2858 -6.4278 20.8848 -6.36237 18.8281 -5.81126L16.5109 -5.19039L16.2407 -5.67821C16.0856 -5.94477 15.8624 -6.36116 15.7178 -6.58851C15.5861 -6.81936 15.4675 -7.05369 15.457 -7.09289C15.4465 -7.13209 15.9127 -7.21497 16.4839 -7.27C18.129 -7.4307 20.7351 -8.17099 21.9953 -8.83081C23.3788 -9.55165 23.6326 -9.80175 24.2067 -10.992C24.8343 -12.2946 24.9925 -12.5891 25.3666 -13.0675L25.6766 -13.4727L25.2034 -13.0518C23.8088 -11.8518 22.2902 -11.0107 20.7021 -10.5851C20.0252 -10.4038 18.7689 -9.88509 17.3229 -9.1895C16.0521 -8.56889 14.9616 -8.10862 14.8956 -8.14694C14.7599 -8.23664 12.3033 -12.7185 11.4897 -14.3492C11.2184 -14.8928 10.9717 -15.3449 10.9387 -15.3641C10.8396 -15.4216 10.33 -13.7304 10.3861 -13.5213C10.4281 -13.3645 14.6598 -6.31905 15.0692 -5.72846C15.1633 -5.5856 14.7893 -5.47138 12.6369 -4.96468C10.7319 -4.52426 9.6975 -4.21908 8.56444 -3.76142C5.50624 -2.5218 5.35102 -2.42419 2.36959 0.195429C0.869359 1.52179 -0.349965 2.64684 -0.335959 2.69911C-0.325455 2.73831 -0.221318 2.7104 -0.118164 2.62674C0.885793 1.89554 5.63455 -1.00155 6.27393 -1.27091C6.72505 -1.46181 8.19504 -1.91172 9.56187 -2.27796C11.7879 -2.87441 12.2069 -3.02872 13.8177 -3.83847C14.8031 -4.3266 15.6132 -4.73975 15.6262 -4.74324C15.6783 -4.75719 16.4164 -3.51239 16.4655 -3.32944C16.49 -3.23797 15.0012 -1.81665 13.1535 -0.173074C11.3187 1.46701 9.43392 3.23256 8.98523 3.74495C8.514 4.27738 7.3411 5.99223 6.27333 7.73494C5.24712 9.42449 3.7241 11.8634 2.88372 13.153C0.582449 16.6968 0.545373 16.8188 2.41986 14.2857C3.62077 12.6754 5.03841 11.3012 7.61469 9.25229C9.83644 7.49449 10.8265 6.34685 14.8229 0.850213L17.1371 -2.33293L17.6626 -1.46531C17.9588 -0.984468 18.2856 -0.441774 18.4197 -0.253622C18.5408 -0.0619805 18.6419 0.107011 18.6489 0.133147C18.6594 0.172349 15.7745 3.25631 14.2011 4.88239C11.8506 7.30496 10.2886 9.39017 9.56878 11.0256C8.89655 12.5783 6.65133 18.362 6.68284 18.4796C6.69685 18.5319 7.66246 16.9286 8.82341 14.9089L10.9525 11.2431L13.4998 9.03394C16.3981 6.52063 17.0701 5.69629 18.4745 3.02304C18.9363 2.14299 19.3585 1.42762 19.4081 1.45635C19.5403 1.53299 21.0791 4.04784 21.1587 4.29264C21.2182 4.51479 19.5212 5.99192 16.8087 8.10529C15.4122 9.19378 13.7162 10.7267 12.9885 11.5519C12.6871 11.8848 11.7175 13.265 10.8095 14.6148C9.90505 15.9776 8.41964 18.1403 7.50718 19.4212C5.23553 22.607 5.02267 22.9581 6.44389 21.2328C7.788 19.5841 9.31076 18.2377 11.8805 16.3726C14.3471 14.5913 15.5574 13.3286 19.5842 8.25796C20.7966 6.74261 21.8378 5.52526 21.9003 5.55051C22.035 5.58445 22.6981 6.65329 22.634 6.72649C22.4868 6.90599 19.5628 10.0004 18.5127 11.0801C16.7305 12.9162 15.2086 14.6825 14.5976 15.6306C14.3112 16.0715 13.7066 17.1999 13.2623 18.1453C12.0417 20.6712 10.494 23.747 9.1051 26.3741C8.43144 27.6611 7.90052 28.6997 7.93957 28.6892C7.99164 28.6753 8.5135 27.8632 9.11049 26.8629C10.4637 24.6235 11.7778 23.1229 14.7928 20.3683C16.5624 18.7456 17.7398 17.0996 21.141 11.4123L23.3292 7.75872L23.9452 8.75612C24.2885 9.3084 24.6223 9.87722 24.6774 10.0305C24.7594 10.2327 24.4149 10.7171 22.8705 12.5035C20.5829 15.1613 20.5448 15.2275 18.1985 18.8114C17.1798 20.3729 16.0545 22.005 15.6829 22.4407C14.8602 23.4315 12.2627 26.1303 10.2697 28.0649C9.46298 28.8553 8.82701 29.5019 8.84703 29.5245C9.02874 29.6299 19.9655 19.9906 21.0041 18.816C22.0747 17.6047 24.0507 13.7839 24.8322 11.3896C24.9409 11.0664 25.0637 10.7954 25.1157 10.7814C25.1938 10.7605 26.7963 13.3564 26.8698 13.6308C26.8908 13.7092 26.2398 14.6119 25.4075 15.6193C20.1082 22.1373 19.3323 23.5637 17.6818 29.6923C16.5464 33.8901 15.7044 37.6732 15.9127 37.6173C15.9387 37.6104 16.3921 36.4385 16.9161 35.0095C17.6465 33.0491 18.248 31.7534 19.382 29.6849C20.2089 28.1888 21.4014 25.9225 22.0195 24.6364C23.0448 22.5269 27.3867 14.9349 27.608 14.8756C27.6991 14.8512 29.0493 16.8703 28.9852 16.9435C28.7679 17.2259 23.9161 23.9041 23.1985 24.9227C22.0091 26.628 20.82 28.9074 20.3621 30.3747C20.1637 30.9881 19.4633 33.1645 18.7834 35.2095C18.1166 37.2509 17.4808 39.2 17.3756 39.5363L17.1902 40.1462L17.4326 39.8011C17.5668 39.6251 18.4052 38.224 19.3103 36.707C20.2022 35.1934 21.9647 32.2422 23.2193 30.1553C25.5952 26.2133 26.5664 24.3704 28.3882 20.3389C28.9732 19.0336 29.4997 17.9262 29.5578 17.8826C29.6028 17.8425 29.9407 18.2702 30.297 18.819L30.9426 19.8225L29.1284 23.726C25.9191 30.6504 25.7518 31.1714 25.0263 35.8056C24.7736 37.414 24.3905 39.7855 24.178 41.075C23.5823 44.736 23.5623 44.7134 24.5532 41.9548C24.9209 40.9319 25.9785 38.0575 26.9022 35.5691C28.8655 30.2951 29.5443 28.1944 30.5355 24.3434C30.9299 22.7951 31.3192 21.3322 31.3839 21.1048L31.5036 20.6666L32.5201 22.1169L33.533 23.5542L31.9156 27.3069C29.5698 32.7674 29.5853 32.7213 28.6812 39.084C28.3552 41.3563 28.0754 43.28 28.0539 43.3558C28.0288 43.4185 28.0429 43.4708 28.0819 43.4603C28.186 43.4324 31.8989 32.4515 32.3919 30.7508C32.6289 29.9169 33.0879 28.1413 33.3976 26.7978C33.7073 25.4543 34.022 24.3896 34.1046 24.4375C34.2532 24.5237 35.5595 26.2745 35.605 26.4444C35.6225 26.5097 34.9807 28.4884 34.1922 30.8566C33.3871 33.2152 32.6972 35.4309 32.6415 35.796C32.5859 36.161 32.4975 37.4452 32.4306 38.6536C32.3637 39.862 32.22 42.0854 32.0965 43.6031C31.9695 45.1078 31.8811 46.392 31.8986 46.4573C31.9126 46.5096 32.069 45.7394 32.2439 44.7261C32.7036 42.0679 33.2213 40.0944 34.2428 37.0336C35.2463 34.0616 35.7264 32.0002 36.0359 29.3542C36.1563 28.3975 36.2691 27.569 36.3072 27.5028C36.3477 27.3939 37.8948 29.2623 37.9578 29.4975C37.9718 29.5497 37.609 31.2156 37.1409 33.2178C36.4338 36.3065 36.3069 37.0827 36.2986 38.4575C36.2979 39.3401 36.2754 41.391 36.2615 43.0053C36.2346 44.6232 36.2583 45.9614 36.2913 45.9806C36.3244 45.9997 36.373 45.6085 36.4232 45.1189C36.5643 43.3024 36.8867 41.3812 37.6129 37.8953C38.3101 34.6132 38.3928 33.9328 38.5824 30.4226C38.5889 30.2387 39.7491 31.4965 39.8262 31.784C39.8402 31.8363 39.4092 33.7165 38.8635 35.9495C38.217 38.5878 37.8957 40.2005 37.9417 40.5803C37.9702 40.8948 37.9678 42.6042 37.9108 44.3702C37.8668 46.1326 37.849 47.524 37.887 47.4578C38.0859 47.0544 39.3794 39.2287 39.7265 36.3065C39.9482 34.4264 40.1469 32.7205 40.1759 32.5166C40.2351 32.1646 40.2516 32.1742 40.9088 32.9085L41.5695 33.6558L41.0045 37.0145C40.5979 39.3504 40.4359 40.7243 40.4732 41.5407C40.5076 42.1897 40.5343 43.6952 40.5585 44.8792C40.5698 46.0667 40.5936 47.0407 40.6136 47.0633C40.7257 47.1173 41.5096 39.3162 41.6313 36.9586C41.7097 35.481 41.8146 34.2064 41.8362 34.1306C41.8743 34.0644 42.123 34.2638 42.3868 34.5713L42.8613 35.1444L42.563 36.9471C42.0686 40.0488 42.0318 41.109 42.3908 42.9176C42.5569 43.7975 42.8043 45.3979 42.9212 46.459C43.0416 47.5332 43.1721 48.4366 43.2181 48.4523C43.2512 48.4715 43.3046 47.0566 43.345 45.281Z" fill="black" fill-opacity="0.15"/>
</svg>
