<svg width="59" height="48" viewBox="0 0 59 48" fill="none" xmlns="http://www.w3.org/2000/svg">
<path id="Vector" d="M11.8863 4.25033C12.6515 7.3546 12.9389 8.3915 13.9992 11.8721L14.566 13.7163L13.9163 13.3728L13.26 13.0175L12.9166 11.8567C12.6415 10.922 12.4108 10.4147 11.7873 9.41566C11.3514 8.71446 10.4671 7.20983 9.81097 6.07338C9.14807 4.9252 8.6137 3.99964 8.60389 4.03655C8.59898 4.05501 8.88388 4.95277 9.23523 6.04649C9.9447 8.24564 10.9478 10.3065 12.009 11.7402C12.3582 12.2103 12.63 12.6002 12.6066 12.6137C12.595 12.6204 12.4155 12.5522 12.2158 12.4488C11.9288 12.3021 11.5746 11.8504 10.7654 10.5836C9.5898 8.76298 9.62176 8.79138 7.40976 7.41285C6.83203 7.05907 6.47857 6.71639 6.07523 6.15256C5.36818 5.17049 5.45134 5.63797 6.22433 7.00377C6.90937 8.21726 7.65449 9.1305 8.79166 10.1298C9.28465 10.5794 9.68851 10.9555 9.6836 10.9739C9.67869 10.9924 9.04884 10.8718 8.27151 10.7113C6.97493 10.4601 1.32615 9.89421 1.28504 10.0117C1.24884 10.1107 5.40013 11.7755 6.58861 12.136C7.72856 12.4932 9.32554 12.6178 10.8038 12.4829C11.5847 12.407 12.5581 12.6104 12.7137 12.8799C12.7542 12.9502 12.4716 12.9728 12.0765 12.9353C10.7892 12.835 9.57701 12.9725 8.16399 13.3822C6.73931 13.7985 4.65242 14.5504 4.24393 14.7862C3.98226 14.9529 8.93989 14.4026 10.3904 14.1119C10.9335 14.0014 11.8207 13.786 12.3718 13.6084L13.3805 13.3072L14.2945 13.9199C14.8052 14.2655 15.1918 14.5578 15.1568 14.578C15.1218 14.5982 14.0245 14.6382 12.7145 14.6603C11.4045 14.6824 9.91086 14.7637 9.396 14.8422C8.44493 15.0008 2.58518 16.6031 2.5625 16.7255C2.54779 16.7809 6.32211 16.4451 9.65956 16.0804C10.3919 16.0012 12.0803 15.745 13.4307 15.4965C15.8575 15.0639 16.2809 15.0694 16.5951 15.5597C16.6424 15.6417 15.8652 15.778 14.8803 15.878C12.3103 16.1434 11.6738 16.3077 9.26687 17.26C6.88329 18.1987 5.69694 18.4619 2.70843 18.7033C1.77022 18.7763 0.977639 18.859 0.942625 18.8792C0.907612 18.8994 1.40165 18.9735 2.03456 19.0455C3.52464 19.2006 5.12705 19.119 6.8768 18.7805C7.63557 18.6392 8.94978 18.4897 9.78109 18.4471C11.9205 18.3523 14.5801 17.676 16.8328 16.6722L17.6387 16.3162L18.2153 16.7488C18.5447 16.996 18.7888 17.23 18.7857 17.2786C18.7642 17.3223 17.3524 17.6531 15.6328 17.9899C12.105 18.6988 10.6404 19.1538 8.26797 20.2736C7.36372 20.702 5.78864 21.4239 4.77749 21.8827C2.77363 22.8053 2.67349 22.8475 2.78411 22.8774C2.82098 22.8873 4.18916 22.5348 5.81106 22.0827C7.43296 21.6305 9.39399 21.0919 10.1791 20.8886C12.3908 20.299 14.9625 19.4703 17.2595 18.5972C18.423 18.1597 19.46 17.8266 19.5774 17.8682C19.817 17.9329 21.6715 19.3929 21.6469 19.4852C21.6371 19.5221 20.1073 19.7024 18.2395 19.8903C16.3833 20.0715 14.2016 20.3626 13.3962 20.5309C12.1312 20.7926 3.27418 23.6723 3.24169 23.8316C3.21716 23.9239 10.8521 22.5933 14.5538 21.8621C16.3988 21.4998 18.9201 20.9345 20.1562 20.5958C22.1891 20.0469 22.4466 20.0076 22.6955 20.2232C22.8486 20.3535 23.3126 20.7261 23.7263 21.0652L24.4713 21.6817L23.6302 21.7612C23.1669 21.7944 21.645 21.9076 20.2601 21.9886C15.9801 22.257 15.096 22.4238 10.8994 23.7532C9.26951 24.2724 7.26552 24.8983 6.43553 25.1588C5.61722 25.4126 4.92424 25.6408 4.91443 25.6777C4.90462 25.7146 5.52333 25.6542 6.29562 25.5364C7.05624 25.4253 9.18942 25.131 11.0117 24.8912C16.2145 24.1994 18.2235 23.8518 21.8477 23.0403L25.228 22.2915L26.2471 23.1403C26.8021 23.6165 27.2632 24.0377 27.2417 24.0813C27.2386 24.13 25.0403 24.4462 22.372 24.784C17.6958 25.3905 17.4752 25.4397 15.6722 26.0902C13.7106 26.8166 12.8265 26.9833 8.28667 27.4487C5.35042 27.7536 4.98423 27.7932 5.01129 27.84C5.02482 27.8635 5.55201 27.8871 6.17444 27.8871C6.79195 27.9055 7.82115 27.9361 8.44052 27.9847C9.98219 28.0944 11.5865 28.0429 13.4057 27.8518C14.2518 27.7538 15.1617 27.7127 15.4481 27.7505C16.4896 27.8834 18.1443 27.8653 19.4585 27.7158C21.0418 27.5203 22.6102 27.0834 25.7722 25.9295C27.0494 25.4733 28.1798 25.0862 28.3002 25.0792C28.409 25.0789 28.8878 25.3961 29.3654 25.792C30.2198 26.5172 30.2198 26.5172 29.9156 26.5835C29.7553 26.6292 27.4169 27.0263 24.7259 27.4865C19.7985 28.3318 19.2505 28.4607 15.7716 29.7663C15.1038 30.0113 13.2989 30.6316 11.7526 31.1338C10.213 31.6477 8.94074 32.0855 8.93769 32.1341C8.92787 32.171 9.17854 32.12 9.51767 32.0336C10.5866 31.7288 14.472 30.9384 15.8796 30.735C16.6402 30.6239 18.0085 30.5681 18.924 30.6175C22.2783 30.821 23.9525 30.4324 31.0842 27.7989C31.4565 27.6621 31.5438 27.7055 32.3042 28.3756C32.7517 28.7733 33.1236 29.121 33.107 29.1462C33.0972 29.1831 32.5141 29.3322 31.799 29.4952C29.7003 29.957 27.198 30.6363 26.0093 31.057C25.4066 31.28 23.5865 32.1434 21.9703 32.9828C19.5703 34.2435 18.8527 34.564 18.0842 34.7422C16.7375 35.051 14.6718 35.1658 12.8991 35.0333C12.0487 34.9619 11.3408 34.9488 11.3378 34.9974C11.2593 35.2927 14.9105 35.9028 16.6254 35.8812C18.3219 35.8546 19.3442 35.5769 21.5133 34.5901C23.9527 33.4785 25.0518 33.172 26.6831 33.1674C27.8192 33.1676 28.8641 32.7674 31.5424 31.3148L34.0573 29.9566L35.2602 31.0429C35.9198 31.6462 36.4669 32.1895 36.4774 32.2616C36.4897 32.3638 35.5337 32.5408 28.9549 33.6523C25.3429 34.2692 23.9238 34.7761 18.7188 37.2969C16.5485 38.3625 14.7603 39.2543 14.7437 39.2795C14.7124 39.3601 14.7426 39.3583 17.1226 38.656C19.5677 37.9316 21.9656 37.422 25.4074 36.8876C30.4423 36.1208 30.9234 35.9837 35.0903 34.1715C36.3668 33.6064 37.4701 33.1724 37.5254 33.1874C37.6864 33.2506 39.2232 34.7534 39.2104 34.839C39.2006 34.8759 36.7252 35.3053 33.7282 35.8015C27.607 36.7893 27.6371 36.7875 24.5219 37.9144C23.2864 38.3621 20.7652 39.2241 18.94 39.8093C17.1031 40.4012 15.5334 40.9169 15.4751 40.9506C15.4118 41.0027 16.1638 40.8497 17.1413 40.629C21.6575 39.5837 24.6048 39.1631 26.5465 39.2918C30.3696 39.5527 32.1378 39.2191 38.063 37.1104L40.6942 36.1692L41.6317 37.0652C42.1517 37.5616 42.5458 37.9746 42.5224 37.9881C42.4991 38.0015 41.5744 38.098 40.4642 38.2235C37.4075 38.5355 36.4767 38.7292 34.0138 39.5575C29.7859 40.9675 29.6041 41.0569 24.3834 44.0086C21.3403 45.7186 19.7432 46.672 20.0405 46.594C20.2961 46.5246 21.1371 46.1484 21.8927 45.759C24.4063 44.4796 26.7434 43.8645 30.616 43.4563C33.8766 43.1203 36.5969 42.2527 42.4962 39.7216C43.9097 39.1242 43.8913 39.1192 44.6075 39.9554L44.9259 40.3183L43.7587 40.6954C43.1241 40.8899 41.5157 41.3655 40.1979 41.7514C36.6119 42.7908 35.7924 43.1233 32.4452 44.8997C30.7774 45.7844 28.4836 46.9057 27.3404 47.3783C25.326 48.2288 21.6905 49.6405 20.9956 49.8386C20.8119 49.8978 20.6952 49.9651 20.7505 49.9801C20.9165 50.0249 25.6815 48.8984 26.5698 48.6042C27.6234 48.2459 29.7602 47.7152 31.6955 47.3476C36.1325 46.4886 38.1457 45.7169 43.4672 42.832C44.9065 42.0635 46.1007 41.4365 46.1375 41.4465C46.1861 41.4497 47.9282 43.1464 47.9755 43.2284C47.9823 43.2401 47.5276 43.3151 46.9642 43.3905C46.3941 43.4541 45.3545 43.6481 44.6326 43.7993L43.3326 44.0813L39.9713 46.0219C36.4233 48.0704 34.3803 49.4373 30.633 52.2726C27.5269 54.6283 27.4342 54.7911 29.9736 53.3406C31.9878 52.1934 32.8638 51.797 35.8518 50.6654C37.0805 50.206 44.0693 46.624 46.5903 45.1685C48.7494 43.9219 48.7377 43.9287 49.4398 44.6325C49.891 45.0906 49.9906 45.2361 49.8739 45.3035C49.7922 45.3507 48.7484 45.6721 47.5424 46.0091C45.3928 46.6253 45.3277 46.6473 43.6857 47.6578C41.7822 48.8349 41.4978 49.124 40.4554 51.0381C39.8415 52.158 38.4518 55.3035 38.0788 56.4093L37.9113 56.9278L38.1845 56.4576C38.3318 56.2007 38.9973 55.0354 39.6512 53.8768C41.2799 50.9838 41.5391 50.678 43.0563 49.802C43.99 49.2629 44.5675 49.0233 45.5013 48.7809C46.577 48.4879 46.9475 48.3209 48.7915 47.2562L50.869 46.0568L51.2563 46.4581C51.4751 46.6754 51.7985 47.0198 51.997 47.202C52.1839 47.3909 52.3591 47.5866 52.3794 47.6217C52.3997 47.6568 51.9709 47.8575 51.4334 48.0585C49.8859 48.6396 47.5602 50.0291 46.5137 50.9926C45.364 52.047 45.1835 52.3543 44.9371 53.6525C44.668 55.0732 44.5913 55.3986 44.3538 55.9575L44.1592 56.4291L44.5074 55.9001C45.5439 54.38 46.7931 53.1746 48.2169 52.3525C48.8238 52.0021 49.903 51.1759 51.1197 50.1298C52.1866 49.2014 53.1208 48.4746 53.1945 48.4945C53.3488 48.546 56.8817 52.2394 58.0897 53.604C58.4923 54.0588 58.8476 54.4317 58.8845 54.4416C58.9951 54.4715 59.0496 52.7061 58.9414 52.5186C58.8602 52.378 52.9491 46.6679 52.4008 46.2034C52.273 46.0898 52.6047 45.8826 54.5526 44.8361C56.2787 43.9176 57.1989 43.3551 58.1749 42.6198C60.808 40.6309 60.9327 40.4964 63.1345 37.1944C64.2404 35.525 65.127 34.1227 65.0999 34.0758C65.0796 34.0407 64.9862 34.0946 64.9082 34.2021C64.1277 35.1682 60.2906 39.1957 59.7427 39.6213C59.3564 39.9225 58.053 40.7375 56.8275 41.4451C54.8317 42.5973 54.4669 42.8548 53.1206 44.0539C52.2951 44.7804 51.6195 45.3892 51.6078 45.3959C51.5612 45.4229 50.526 44.4115 50.4313 44.2475C50.3839 44.1655 51.4541 42.4073 52.8135 40.3415C54.1612 38.2824 55.5248 36.0892 55.8256 35.4781C56.143 34.8419 56.8321 32.8819 57.4124 30.9222C57.9664 29.0246 58.8063 26.2746 59.2842 24.8114C60.5899 20.7928 60.5941 20.6653 59.4391 23.5973C58.6959 25.4635 57.6823 27.1579 55.7241 29.8037C54.033 32.0767 53.3737 33.4414 50.9361 39.7851L49.5246 43.4588L48.7925 42.7567C48.3819 42.3689 47.9258 41.9293 47.7475 41.7823C47.5809 41.6285 47.4395 41.4914 47.426 41.468C47.4057 41.4329 49.3941 37.7073 50.4931 35.7294C52.1365 32.781 53.1056 30.3626 53.3776 28.5966C53.625 26.9228 54.2968 20.755 54.236 20.6496C54.2089 20.6027 53.6911 22.4013 53.0925 24.6527L51.9847 28.7446L50.096 31.5378C47.947 34.7156 47.5112 35.6858 46.8465 38.6315C46.6282 39.601 46.4055 40.4013 46.3502 40.3864C46.2028 40.3466 44.0654 38.3157 43.9252 38.0998C43.8102 37.9006 45.0671 36.0346 47.1402 33.2912C48.2074 31.8784 49.4489 29.9587 49.9382 28.9733C50.1432 28.5738 50.7225 26.9896 51.2502 25.4508C51.7711 23.9004 52.6462 21.4269 53.196 19.9534C54.5657 16.2883 54.6804 15.894 53.7542 17.9284C52.8826 19.8688 51.7602 21.5635 49.7607 24.0301C47.8393 26.3891 46.997 27.9221 44.4197 33.8621C43.6408 35.6396 42.9503 37.085 42.8833 37.0768C42.7444 37.0788 41.8273 36.218 41.8703 36.1307C41.966 35.9192 43.9894 32.1735 44.7243 30.8588C45.9706 28.624 46.9834 26.524 47.3282 25.4501C47.4908 24.9501 47.7827 23.7037 47.9672 22.6755C48.4925 19.9197 49.1914 16.5481 49.853 13.6511C50.1706 12.2336 50.4146 11.093 50.3796 11.1132C50.3329 11.1401 50.039 12.0596 49.7213 13.1804C48.9937 15.6937 48.1128 17.4832 45.9135 20.9244C44.6242 22.9497 43.9129 24.8444 42.0996 31.2182L40.9316 35.3136L40.0784 34.5096C39.6039 34.065 39.1342 33.602 39.0414 33.4681C38.9098 33.2941 39.1172 32.737 40.1466 30.6118C41.6684 27.4525 41.688 27.3787 43.0268 23.3096C43.6066 21.5377 44.2712 19.67 44.5173 19.1529C45.0556 17.983 46.8661 14.7038 48.2905 12.3193C48.8651 11.3471 49.3121 10.5579 49.2869 10.5412C49.0841 10.4865 41.0148 22.6279 40.3156 24.0313C39.595 25.4784 38.6753 29.6804 38.54 32.1954C38.5187 32.5358 38.4703 32.8293 38.4236 32.8563C38.3536 32.8967 36.1339 30.804 35.9918 30.558C35.9512 30.4877 36.3464 29.4472 36.8897 28.2588C40.3214 20.5913 40.7016 19.0127 40.7097 12.6658C40.72 8.31711 40.5541 4.44504 40.3674 4.55286C40.3441 4.56633 40.2095 5.81564 40.0731 7.33151C39.875 9.41418 39.6293 10.8214 39.0694 13.1129C38.6579 14.7721 38.0925 17.2698 37.8284 18.6721C37.384 20.975 35.155 29.4321 34.9566 29.5467C34.8749 29.5938 33.0481 27.9929 33.091 27.9056C33.2279 27.5767 36.1859 19.8703 36.6155 18.7006C37.323 16.7456 37.8816 14.2361 37.9442 12.7003C37.977 12.0565 38.0903 9.7729 38.2177 7.62169C38.3334 5.47722 38.4431 3.43001 38.4577 3.07792L38.4789 2.44082L38.334 2.83686C38.25 3.04162 37.8028 4.612 37.3212 6.31156C36.8514 8.00439 35.9128 11.3112 35.2411 13.6517C33.9663 18.0743 33.5052 20.1058 32.789 24.4715C32.5617 25.8837 32.3398 27.0897 32.295 27.1468C32.2618 27.1972 31.8248 26.8715 31.3386 26.4336L30.4553 25.6314L31.1974 21.3913C32.5051 13.8723 32.5319 13.3257 32.0333 8.66161C31.8611 7.04268 31.6173 4.65278 31.4889 3.35224C31.1166 -0.338201 31.1418 -0.321507 30.8986 2.5995C30.8082 3.68272 30.5307 6.7329 30.2824 9.37564C29.7511 14.9781 29.6391 17.1829 29.6784 21.1592C29.6982 22.7568 29.7007 24.2706 29.6972 24.507L29.6949 24.9613L28.3377 23.8234L26.9873 22.6973L27.5783 18.6538C28.4309 12.7722 28.4278 12.8208 27.6544 6.44088C27.3811 4.16171 27.1535 2.23111 27.1547 2.15231C27.1626 2.08523 27.1356 2.03837 27.1006 2.05858C27.0072 2.11249 26.263 13.6802 26.2269 15.4506C26.2138 16.3173 26.23 18.1513 26.2786 19.5292C26.3272 20.9071 26.2988 22.0169 26.2066 21.9921C26.0407 21.9473 24.3258 20.5942 24.2379 20.4418C24.204 20.3833 24.3118 18.3059 24.4606 15.8143C24.6278 13.3277 24.7207 11.009 24.68 10.6419C24.6393 10.2749 24.3923 9.01158 24.1441 7.82704C23.896 6.64251 23.4593 4.45767 23.1858 2.95972C22.9191 1.47348 22.6721 0.210147 22.6383 0.151567C22.6112 0.104702 22.6595 0.889134 22.7527 1.91317C22.9967 4.59979 23.0075 6.63996 22.813 9.86091C22.6129 12.9913 22.6827 15.1068 23.0686 17.7427C23.1999 18.6979 23.3053 19.5275 23.2857 19.6013C23.2747 19.717 21.2968 18.3126 21.175 18.1017C21.148 18.0549 21.0673 16.3519 21.0012 14.2968C20.8848 11.1303 20.8064 10.3477 20.4587 9.01755C20.2309 8.16489 19.7219 6.17808 19.3175 4.61511C18.9247 3.0454 18.5555 1.75894 18.5186 1.74899C18.4817 1.73904 18.536 2.12949 18.6142 2.61543C18.9481 4.40659 19.1339 6.34569 19.3347 9.90082C19.5107 13.2515 19.6069 13.9302 20.3323 17.3698C20.3735 17.5491 18.9274 16.6345 18.7785 16.3767C18.7515 16.3298 18.6812 14.4022 18.6303 12.1039C18.5719 9.38829 18.4649 7.74738 18.3221 7.39237C18.2132 7.09595 17.7732 5.44423 17.3711 3.72367C16.9574 2.00986 16.6146 0.661292 16.5949 0.735111C16.5073 1.17625 17.2833 9.07003 17.7043 11.9825C17.9768 13.8559 18.2264 15.5551 18.2511 15.7596C18.285 16.1149 18.2666 16.1099 17.4418 15.5707L16.6102 15.0199L16.2866 11.6294C16.0748 9.26787 15.8757 7.89879 15.6283 7.11995C15.4271 6.50191 15.0117 5.05465 14.6818 3.91728C14.3636 2.77318 14.0885 1.8385 14.0633 1.82181C13.9411 1.79868 15.203 9.53686 15.6957 11.8456C16.0023 13.2932 16.2309 14.5515 16.2297 14.6303C16.21 14.7041 15.9181 14.5759 15.5838 14.3471L14.9771 13.9163L14.7987 12.0979C14.4734 8.97395 14.2345 7.94027 13.4197 6.28624C13.0316 5.47929 12.3783 3.99749 11.9908 3.00278C11.5965 1.99635 11.2366 1.15748 11.1881 1.15426C11.1512 1.1443 11.4658 2.52479 11.8863 4.25033Z" fill="black" fill-opacity="0.15"/>
</svg>
